HIERARCHY
ROOT Hips
{
	OFFSET 0.000000 0.000000 0.000000
	CHANNELS 6 Xposition Yposition Zposition Yrotation Xrotation Zrotation
	JOINT Chest
	{
		OFFSET 0.000000 -0.009281 11.569106
		CHANNELS 3 Yrotation Xrotation Zrotation
		JOINT Chest2
		{
			OFFSET -0.000000 0.016865 9.269641
			CHANNELS 3 Yrotation Xrotation Zrotation
			JOINT Chest3
			{
				OFFSET -0.000000 0.000001 8.374491
				CHANNELS 3 Yrotation Xrotation Zrotation
				JOINT Chest4
				{
					OFFSET -0.000000 0.000001 8.374493
					CHANNELS 3 Yrotation Xrotation Zrotation
					JOINT Neck
					{
						OFFSET -0.000000 0.000002 12.152554
						CHANNELS 3 Yrotation Xrotation Zrotation
						JOINT Head
						{
							OFFSET -0.000000 0.040101 7.802319
							CHANNELS 3 Yrotation Xrotation Zrotation
							End Site
							{
								OFFSET -0.000000 0.020947 14.853096
							}
						}
					}
					JOINT RightCollar
					{
						OFFSET 2.894404 0.000001 6.791374
						CHANNELS 3 Yrotation Xrotation Zrotation
						JOINT RightShoulder
						{
							OFFSET 13.574684 0.000001 0.000000
							CHANNELS 3 Yrotation Xrotation Zrotation
							JOINT RightElbow
							{
								OFFSET 23.923903 0.000002 0.000000
								CHANNELS 3 Yrotation Xrotation Zrotation
								JOINT RightWrist
								{
									OFFSET 19.846718 0.012767 0.000000
									CHANNELS 3 Yrotation Xrotation Zrotation
									End Site
									{
										OFFSET 14.973145 0.000001 0.000000
									}
								}
							}
						}
					}
					JOINT LeftCollar
					{
						OFFSET -2.894404 0.000001 6.791374
						CHANNELS 3 Yrotation Xrotation Zrotation
						JOINT LeftShoulder
						{
							OFFSET -13.574684 -0.000001 0.000000
							CHANNELS 3 Yrotation Xrotation Zrotation
							JOINT LeftElbow
							{
								OFFSET -23.923903 -0.000002 0.000000
								CHANNELS 3 Yrotation Xrotation Zrotation
								JOINT LeftWrist
								{
									OFFSET -19.846718 0.012763 0.000000
									CHANNELS 3 Yrotation Xrotation Zrotation
									End Site
									{
										OFFSET -14.973145 -0.000001 0.000000
									}
								}
							}
						}
					}
				}
			}
		}
	}
	JOINT RightHip
	{
		OFFSET 9.469263 0.004643 0.045487
		CHANNELS 3 Yrotation Xrotation Zrotation
		JOINT RightKnee
		{
			OFFSET 0.000000 0.002661 -40.478676
			CHANNELS 3 Yrotation Xrotation Zrotation
			JOINT RightAnkle
			{
				OFFSET 0.000000 0.049106 -35.224068
				CHANNELS 3 Yrotation Xrotation Zrotation
				JOINT RightToe
				{
					OFFSET -0.000001 12.539529 -6.151390
					CHANNELS 3 Yrotation Xrotation Zrotation
					End Site
					{
						OFFSET -0.000001 5.044994 -1.291870
					}
				}
			}
		}
	}
	JOINT LeftHip
	{
		OFFSET -9.469263 0.004641 0.045487
		CHANNELS 3 Yrotation Xrotation Zrotation
		JOINT LeftKnee
		{
			OFFSET 0.000000 0.002661 -40.478676
			CHANNELS 3 Yrotation Xrotation Zrotation
			JOINT LeftAnkle
			{
				OFFSET 0.000000 0.049106 -35.224068
				CHANNELS 3 Yrotation Xrotation Zrotation
				JOINT LeftToe
				{
					OFFSET -0.000001 12.539529 -6.151390
					CHANNELS 3 Yrotation Xrotation Zrotation
					End Site
					{
						OFFSET -0.000001 5.044994 -1.291870
					}
				}
			}
		}
	}
}
MOTION
Frames: 9
Frame Time: 0.016667
10.775424 7.030951 83.138779 -5.283559 -1.735883 -107.311766 -0.430363 -4.350173 2.575677 -0.155558 -1.930432 1.136585 -0.155558 -1.930431 1.136585 -0.113067 -1.448119 0.851866 1.799000 -16.384734 -4.497696 1.732714 5.739189 -7.710559 6.425750 0.044063 -0.612554 35.228272 -6.454386 0.957247 -1.890862 -66.622075 89.265006 45.949148 -18.324440 -30.563498 -4.293626 -9.291809 -6.439030 -30.573979 -0.625079 -13.165475 -35.186344 -65.468381 -56.926331 -38.751587 -20.278034 35.039683 -0.635415 -6.828236 -1.786663 1.563240 -3.158654 -8.855436 -1.051983 3.820786 1.628924 -0.008484 -0.033013 -0.006962 -1.168956 -8.211907 1.602308 0.956126 -0.744002 0.131436 -0.034411 3.752687 1.190070 0.008256 -0.059416 0.012999 
10.733434 7.041795 83.140427 -5.311804 -1.742425 -107.350896 -0.439087 -4.376805 2.655235 -0.161807 -1.943208 1.170718 -0.161807 -1.943209 1.170716 -0.117621 -1.457722 0.877439 1.800811 -16.490785 -4.506812 1.737902 5.542263 -7.724550 6.595088 0.903507 -0.633962 34.234547 -5.683599 1.042554 -1.903821 -65.767386 89.641547 44.473554 -18.383688 -29.805272 -4.499044 -8.361851 -6.282874 -29.932409 0.773079 -13.353416 -33.352032 -65.179122 -59.030559 -38.230563 -20.579841 34.806197 -0.655277 -6.788647 -1.777130 1.591920 -3.225913 -8.810803 -1.066625 3.823160 1.591926 -0.012283 -0.032278 -0.007606 -1.170610 -8.210947 1.669821 0.948206 -0.744673 0.141157 -0.036561 3.713489 1.147279 0.009957 -0.050429 0.015084 
10.689963 7.044779 83.146339 -5.367945 -1.744249 -107.390784 -0.454704 -4.423585 2.729065 -0.172478 -1.965263 1.203376 -0.172478 -1.965263 1.203374 -0.125475 -1.474294 0.901886 1.794464 -16.617341 -4.501702 1.733983 5.307296 -7.714629 6.734130 2.019933 -0.724658 33.263810 -4.961888 1.220865 -1.590802 -64.816351 89.889920 43.833736 -18.557503 -29.250640 -4.746236 -7.116354 -6.154941 -29.155270 2.018092 -13.447904 -32.010569 -64.658334 -60.683348 -37.872805 -20.560379 34.501294 -0.675822 -6.785969 -1.808886 1.599852 -3.270010 -8.741400 -1.072804 3.811005 1.601616 -0.017778 -0.029206 -0.008050 -1.177321 -8.232866 1.696998 0.936033 -0.750637 0.167412 -0.041008 3.666638 1.137982 0.011182 -0.032185 0.017409 
10.647831 7.046681 83.153496 -5.439082 -1.761553 -107.430331 -0.480827 -4.462273 2.812060 -0.183641 -1.983961 1.242232 -0.183641 -1.983961 1.242232 -0.133684 -1.488352 0.930985 1.793436 -16.780971 -4.492848 1.742978 5.003904 -7.695163 6.868583 3.199219 -0.851689 32.357919 -4.216846 1.452331 -0.417292 -63.739708 89.489965 43.719693 -18.621276 -28.810120 -5.012421 -5.550857 -6.155352 -28.304234 3.042776 -13.294711 -31.073939 -63.808679 -61.930281 -37.732086 -20.162059 34.060709 -0.676492 -6.820404 -1.871111 1.591206 -3.278368 -8.669388 -1.069048 3.776557 1.627866 -0.026460 -0.022089 -0.009948 -1.174895 -8.265927 1.655089 0.927223 -0.776656 0.221214 -0.044148 3.630680 1.166555 0.010737 -0.014346 0.016954 
10.602839 7.045445 83.158791 -5.508927 -1.784079 -107.446587 -0.494171 -4.483371 2.872835 -0.187605 -1.994635 1.271858 -0.187605 -1.994635 1.271858 -0.136537 -1.496375 0.953184 1.772476 -16.976322 -4.465085 1.723123 4.641192 -7.647107 7.038466 4.444255 -0.862374 31.441594 -3.371019 1.576926 2.052735 -62.549274 88.069245 43.797915 -18.504019 -28.365352 -5.393117 -3.633806 -6.161756 -27.425633 3.780172 -12.853661 -30.601314 -62.573364 -62.743217 -37.829368 -19.459972 33.453228 -0.663681 -6.861346 -1.938291 1.573317 -3.276177 -8.629523 -1.059059 3.740441 1.682237 -0.034130 -0.017185 -0.010335 -1.160847 -8.285653 1.538814 0.917745 -0.825504 0.300183 -0.045904 3.606539 1.212854 0.008206 -0.001369 0.014526 
10.554755 7.046173 83.159996 -5.562766 -1.799564 -107.440235 -0.497668 -4.487380 2.919034 -0.187093 -1.996566 1.294578 -0.187093 -1.996566 1.294579 -0.136076 -1.497829 0.970225 1.730943 -17.185996 -4.416767 1.672917 4.251471 -7.567976 7.274252 6.008262 -0.867988 30.446398 -2.596090 1.510696 5.940198 -61.249195 85.588499 43.751760 -18.250134 -27.841779 -5.899026 -1.452376 -6.182282 -26.587309 4.257069 -12.210409 -30.624174 -60.808648 -63.037161 -38.008456 -18.394283 32.449471 -0.647350 -6.887030 -1.991200 1.559772 -3.271813 -8.626866 -1.053413 3.711087 1.703768 -0.040440 -0.017664 -0.012312 -1.141587 -8.281650 1.414935 0.899873 -0.878883 0.362743 -0.044469 3.588901 1.253214 0.007519 0.002609 0.013035 
10.503831 7.048938 83.159271 -5.611440 -1.810545 -107.429409 -0.498417 -4.505456 2.966351 -0.186353 -2.004312 1.316760 -0.186353 -2.004312 1.316757 -0.135432 -1.503644 0.986856 1.676276 -17.382936 -4.347915 1.604753 3.885309 -7.455739 7.596731 8.055208 -0.827452 29.450328 -2.039809 1.137943 10.787036 -59.625468 82.412557 43.508462 -17.947673 -27.192907 -6.320538 0.550728 -6.229995 -26.043472 4.972660 -11.586612 -31.127863 -58.609935 -62.747322 -37.990376 -16.956406 30.881437 -0.644991 -6.891717 -2.002083 1.559678 -3.292035 -8.649921 -1.049576 3.694003 1.734336 -0.043758 -0.020269 -0.013463 -1.126840 -8.273935 1.354134 0.886427 -0.919467 0.386319 -0.048748 3.565455 1.264787 0.009161 0.002922 0.012022 
10.450554 7.058148 83.160172 -5.659833 -1.817971 -107.417989 -0.497350 -4.525861 3.009355 -0.185831 -2.013992 1.334811 -0.185831 -2.013992 1.334812 -0.134960 -1.510908 1.000393 1.611424 -17.569478 -4.252175 1.526252 3.538647 -7.297617 7.967157 10.256263 -0.578166 28.676529 -1.477787 0.420673 15.544877 -57.561378 79.364592 43.133929 -17.563446 -26.288964 -6.620248 2.154165 -6.258750 -25.862241 6.214384 -11.113733 -31.961792 -56.183312 -62.034756 -37.849722 -15.197149 28.875950 -0.652281 -6.875020 -1.971126 1.572920 -3.346299 -8.667852 -1.055288 3.685246 1.718345 -0.043938 -0.017398 -0.015588 -1.120660 -8.268580 1.364659 0.876911 -0.944381 0.377775 -0.056853 3.529488 1.244422 0.013638 0.004763 0.013002 
10.399858 7.067719 83.161934 -5.704662 -1.824856 -107.396952 -0.503322 -4.528860 3.056497 -0.189362 -2.015179 1.353947 -0.189362 -2.015179 1.353946 -0.137542 -1.511813 1.014730 1.558256 -17.757196 -4.146708 1.472307 3.190606 -7.117677 8.423208 12.368710 -0.283985 28.131784 -0.756081 -0.385654 19.876214 -55.126549 76.656702 42.856606 -16.872958 -25.124680 -6.785560 3.428837 -6.176862 -26.021238 7.850047 -10.813169 -32.925074 -53.608837 -61.186494 -37.826196 -13.180394 26.590758 -0.658061 -6.862440 -1.936812 1.584118 -3.390467 -8.674790 -1.061480 3.670722 1.663443 -0.042547 -0.012956 -0.015761 -1.116813 -8.268230 1.426483 0.872626 -0.951346 0.336217 -0.068477 3.487086 1.214624 0.018843 0.004643 0.014470 
